<svg width="44" height="40" viewBox="0 0 44 40" fill="none" xmlns="http://www.w3.org/2000/svg">
<path d="M13.689 15H15.4817M15.4817 15H29.8232M15.4817 15V26.6667C15.4817 27.1087 15.6705 27.5326 16.0067 27.8452C16.3429 28.1577 16.7989 28.3333 17.2744 28.3333H26.2378C26.7133 28.3333 27.1693 28.1577 27.5055 27.8452C27.8417 27.5326 28.0305 27.1087 28.0305 26.6667V15M18.1707 15V13.3333C18.1707 12.8913 18.3596 12.4674 18.6958 12.1548C19.032 11.8423 19.4879 11.6667 19.9634 11.6667H23.5488C24.0242 11.6667 24.4802 11.8423 24.8164 12.1548C25.1526 12.4674 25.3415 12.8913 25.3415 13.3333V15" stroke="#FF0000" stroke-width="2.5" stroke-linecap="round" stroke-linejoin="round"/>
<circle cx="22" cy="20" r="20" fill="#FF0000" fill-opacity="0.2"/>
</svg>
