<svg width="39" height="53" viewBox="0 0 39 53" fill="none" xmlns="http://www.w3.org/2000/svg">
<path d="M13.1234 15.4564C12.7767 15.1097 12.2958 14.9108 11.8062 14.9108C11.3154 14.9108 10.8344 15.1096 10.4877 15.4564C10.141 15.8031 9.94214 16.284 9.94214 16.7748C9.94214 17.2657 10.141 17.7454 10.4877 18.0933C10.8344 18.44 11.3154 18.6389 11.8062 18.6389C12.297 18.6389 12.7767 18.44 13.1234 18.0933C13.4713 17.7454 13.6702 17.2657 13.6702 16.7748C13.6702 16.284 13.4712 15.8031 13.1234 15.4564Z" fill="white"/>
<path d="M28.0351 15.4564C27.6884 15.1097 27.2088 14.9108 26.7178 14.9108C26.2268 14.9108 25.746 15.1096 25.3993 15.4564C25.0526 15.8031 24.8538 16.284 24.8538 16.7748C24.8538 17.2657 25.0525 17.7454 25.3993 18.0933C25.746 18.44 26.227 18.6389 26.7178 18.6389C27.2086 18.6389 27.6884 18.44 28.0351 18.0933C28.383 17.7454 28.5819 17.2657 28.5819 16.7748C28.5819 16.284 28.3829 15.8044 28.0351 15.4564Z" fill="white"/>
<path d="M38.2894 5.93068C37.7901 5.03046 36.6556 4.70517 35.7552 5.20467L32.7806 6.85444C29.7241 2.70086 24.803 0 19.262 0C13.7211 0 8.7998 2.70086 5.74307 6.85444L2.76851 5.20467C1.86829 4.70507 0.73361 5.03046 0.234316 5.93068C-0.265081 6.8309 0.0600004 7.96547 0.960321 8.46487L3.87984 10.0842C2.98411 12.1352 2.48593 14.3981 2.48583 16.7756C2.48583 16.7757 2.48583 16.7757 2.48583 16.7758C2.48583 16.7758 2.48583 16.7758 2.48583 16.7759V16.776V37.2802C2.48583 43.0271 6.84298 47.7748 12.4273 48.3949V50.3283C12.4273 51.3578 13.2618 52.1924 14.2913 52.1924C15.3208 52.1924 16.1554 51.3578 16.1554 50.3283V48.4643H22.3687V50.3283C22.3687 51.3578 23.2033 52.1924 24.2328 52.1924C25.2622 52.1924 26.0968 51.3578 26.0968 50.3283V48.4643H34.1742C35.2037 48.4643 36.0383 47.6297 36.0383 46.6002V16.7761C36.0383 16.776 36.0383 16.7759 36.0383 16.7759C36.0383 16.7758 36.0383 16.7758 36.0383 16.7757C36.0383 14.3982 35.54 12.1353 34.644 10.0842L37.5636 8.46487C38.4639 7.96547 38.7889 6.8309 38.2894 5.93068ZM19.262 3.72799C22.902 3.72799 26.1979 5.22689 28.567 7.63906C27.964 7.51816 27.3448 7.45598 26.7159 7.45598C26.7155 7.45598 26.7157 7.45598 26.7153 7.45598C23.6727 7.45598 20.966 8.92308 19.2646 11.1868C19.0008 10.8364 18.7116 10.5013 18.3959 10.1856C16.6353 8.42521 14.2942 7.45578 11.8038 7.45588C11.8034 7.45588 11.8036 7.45588 11.8032 7.45588C11.1706 7.45588 10.5527 7.52 9.95506 7.64069C12.3242 5.22761 15.621 3.72799 19.262 3.72799ZM32.31 44.7364H13.6698C9.55852 44.7364 6.21372 41.3916 6.21372 37.2803V27.3076C9.29185 31.1137 13.9971 33.5523 19.2619 33.5523C24.5267 33.5523 29.2318 31.1139 32.31 27.3078V44.7364ZM32.31 16.7763C32.31 23.971 26.4566 29.8244 19.2619 29.8244C12.0671 29.8244 6.21382 23.9711 6.21372 16.7764C6.21413 13.6926 8.72171 11.1839 11.8036 11.1841C13.2981 11.184 14.7032 11.7657 15.7598 12.8221C16.8073 13.8694 17.3874 15.2592 17.3968 16.7388C17.3966 16.7513 17.3949 16.7636 17.3949 16.7762V20.5042C17.3949 21.5337 18.2295 22.3683 19.259 22.3683C20.2885 22.3683 21.123 21.5337 21.123 20.5042V16.8315C21.1236 16.8131 21.1259 16.7951 21.1259 16.7764C21.1263 13.6926 23.6339 11.1839 26.7158 11.1841C28.2103 11.184 29.6153 11.7657 30.672 12.8221C31.7282 13.8781 32.3099 15.2822 32.31 16.7756C32.31 16.7759 32.31 16.776 32.31 16.7763Z" fill="white"/>
</svg>
