<svg width="27" height="40" viewBox="0 0 27 40" fill="none" xmlns="http://www.w3.org/2000/svg">
<path d="M19.4062 11.8457C19.1663 11.58 18.8343 11.4276 18.4944 11.4276C18.1545 11.4276 17.8217 11.58 17.5818 11.8457C17.3418 12.1114 17.2041 12.48 17.2041 12.8562C17.2041 13.2324 17.3417 13.6 17.5818 13.8667C17.8217 14.1324 18.1547 14.2848 18.4944 14.2848C18.8342 14.2848 19.1663 14.1324 19.4062 13.8667C19.6471 13.6 19.7847 13.2324 19.7847 12.8562C19.7847 12.48 19.647 12.1125 19.4062 11.8457Z" fill="white"/>
<path d="M26.5044 4.54524C26.1588 3.85532 25.3735 3.60602 24.7502 3.98884L22.6912 5.25321C20.5754 2.06993 17.169 0 13.3334 0C9.49791 0 6.09133 2.06993 3.97543 5.25321L1.9164 3.98884C1.29325 3.60594 0.507815 3.85532 0.162196 4.54524C-0.183492 5.23517 0.0415331 6.1047 0.664747 6.48743L2.68568 7.72845C2.06564 9.30033 1.72079 11.0346 1.72072 12.8567C1.72072 12.8568 1.72072 12.8568 1.72072 12.8569C1.72072 12.8569 1.72072 12.8569 1.72072 12.857V12.8571V28.5714C1.72072 32.9758 4.7368 36.6144 8.60232 37.0896V38.5714C8.60232 39.3604 9.18002 40 9.89264 40C10.6053 40 11.183 39.3604 11.183 38.5714V37.1428H15.4839V38.5714C15.4839 39.3604 16.0616 40 16.7742 40C17.4869 40 18.0646 39.3604 18.0646 38.5714V37.1428H23.6558C24.3685 37.1428 24.9462 36.5032 24.9462 35.7142V12.8571C24.9462 12.8571 24.9462 12.857 24.9462 12.857C24.9462 12.8569 24.9462 12.8569 24.9462 12.8568C24.9462 11.0347 24.6012 9.30041 23.9811 7.72845L26.002 6.48743C26.6252 6.1047 26.8502 5.23517 26.5044 4.54524ZM13.3334 2.85712C15.853 2.85712 18.1346 4.00587 19.7744 5.85454C19.3571 5.76189 18.9285 5.71423 18.4931 5.71423C18.4928 5.71423 18.4929 5.71423 18.4927 5.71423C16.3866 5.71423 14.513 6.83861 13.3352 8.57353C13.1526 8.30494 12.9524 8.04814 12.7339 7.80619C11.5152 6.45704 9.89462 5.71407 8.17076 5.71415C8.17048 5.71415 8.17062 5.71415 8.17034 5.71415C7.73242 5.71415 7.30474 5.76329 6.89103 5.85579C8.53098 4.00641 10.8131 2.85712 13.3334 2.85712ZM22.3654 34.2858H9.46242C6.61654 34.2858 4.30122 31.7223 4.30122 28.5715V20.9284C6.43194 23.8454 9.689 25.7143 13.3334 25.7143C16.9777 25.7143 20.2347 23.8455 22.3654 20.9286V34.2858ZM22.3654 12.8573C22.3654 18.3713 18.3136 22.8573 13.3334 22.8573C8.35302 22.8573 4.30129 18.3714 4.30122 12.8574C4.3015 10.4939 6.03728 8.57127 8.17062 8.57142C9.20514 8.57135 10.1777 9.01721 10.9092 9.82682C11.6342 10.6295 12.0358 11.6946 12.0423 12.8285C12.0421 12.8382 12.041 12.8475 12.041 12.8572V15.7143C12.041 16.5033 12.6187 17.1429 13.3313 17.1429C14.0439 17.1429 14.6216 16.5033 14.6216 15.7143V12.8996C14.6221 12.8855 14.6236 12.8717 14.6236 12.8574C14.6239 10.4939 16.3597 8.57127 18.493 8.57142C19.5275 8.57135 20.5001 9.01721 21.2316 9.82682C21.9627 10.6361 22.3653 11.7122 22.3654 12.8567C22.3654 12.857 22.3654 12.8571 22.3654 12.8573Z" fill="white"/>
<path d="M9.08397 11.8457C8.84398 11.58 8.51107 11.4276 8.17215 11.4276C7.83239 11.4276 7.49947 11.58 7.25949 11.8457C7.0195 12.1114 6.88184 12.48 6.88184 12.8562C6.88184 13.2324 7.0195 13.6 7.25949 13.8667C7.49947 14.1324 7.83239 14.2848 8.17215 14.2848C8.51191 14.2848 8.84398 14.1324 9.08397 13.8667C9.3248 13.6 9.46247 13.2324 9.46247 12.8562C9.46247 12.48 9.32473 12.1114 9.08397 11.8457Z" fill="white"/>
</svg>
